<svg width="32" height="32" viewBox="0 0 32 32" fill="none" xmlns="http://www.w3.org/2000/svg">
<g clip-path="url(#clip0_15_36)">
<path d="M22.425 18.5C22.2096 19.8613 21.5686 21.1195 20.5941 22.0941C19.6195 23.0686 18.3613 23.7096 17 23.925" stroke="black" stroke-width="2" stroke-linecap="round" stroke-linejoin="round"/>
<path d="M9 8.175C7.075 11.075 5.5 14.4 5.5 17.5C5.5 20.2848 6.60625 22.9555 8.57538 24.9246C10.5445 26.8938 13.2152 28 16 28C18.7848 28 21.4555 26.8938 23.4246 24.9246C25.3938 22.9555 26.5 20.2848 26.5 17.5C26.5 11 22 6 18.35 2.3625L14 11.5L9 8.175Z" stroke="black" stroke-width="2" stroke-linecap="round" stroke-linejoin="round"/>
</g>
<defs>
<clipPath id="clip0_15_36">
<rect width="32" height="32" fill="white"/>
</clipPath>
</defs>
</svg>
