<svg width="32" height="32" viewBox="0 0 32 32" fill="none" xmlns="http://www.w3.org/2000/svg">
<path d="M16.056 5C18.387 5 20.1405 5.9345 21.3165 7.8035C22.5135 9.6515 23.112 12.3395 23.112 15.8675C23.112 19.3955 22.5135 22.094 21.3165 23.963C20.1405 25.832 18.387 26.7665 16.056 26.7665C13.725 26.7665 11.961 25.832 10.764 23.963C9.588 22.094 9 19.3955 9 15.8675C9 12.3395 9.588 9.6515 10.764 7.8035C11.961 5.9345 13.725 5 16.056 5ZM16.056 7.2995C14.691 7.2995 13.6725 7.9715 13.0005 9.3155C12.3495 10.6595 12.024 12.8435 12.024 15.8675C12.024 18.8915 12.3495 21.086 13.0005 22.451C13.6725 23.795 14.691 24.467 16.056 24.467C17.4 24.467 18.408 23.795 19.08 22.451C19.752 21.086 20.088 18.8915 20.088 15.8675C20.088 12.8645 19.752 10.691 19.08 9.347C18.408 7.982 17.4 7.2995 16.056 7.2995Z" fill="black"/>
</svg>
