<svg width="32" height="32" viewBox="0 0 32 32" fill="none" xmlns="http://www.w3.org/2000/svg">
<path fill-rule="evenodd" clip-rule="evenodd" d="M4.49097 15.7969C4.49097 15.2446 4.93868 14.7969 5.49097 14.7969H27.491C28.0433 14.7969 28.491 15.2446 28.491 15.7969C28.491 16.3492 28.0433 16.7969 27.491 16.7969H5.49097C4.93868 16.7969 4.49097 16.3492 4.49097 15.7969Z" fill="black"/>
<path fill-rule="evenodd" clip-rule="evenodd" d="M4.49097 7.79688C4.49097 7.24459 4.93868 6.79688 5.49097 6.79688H27.491C28.0433 6.79688 28.491 7.24459 28.491 7.79688C28.491 8.34916 28.0433 8.79688 27.491 8.79688H5.49097C4.93868 8.79688 4.49097 8.34916 4.49097 7.79688Z" fill="black"/>
<path fill-rule="evenodd" clip-rule="evenodd" d="M4.49097 23.7969C4.49097 23.2446 4.93868 22.7969 5.49097 22.7969H27.491C28.0433 22.7969 28.491 23.2446 28.491 23.7969C28.491 24.3492 28.0433 24.7969 27.491 24.7969H5.49097C4.93868 24.7969 4.49097 24.3492 4.49097 23.7969Z" fill="black"/>
<path fill-rule="evenodd" clip-rule="evenodd" d="M4.49097 15.7969C4.49097 15.2446 4.93868 14.7969 5.49097 14.7969H27.491C28.0433 14.7969 28.491 15.2446 28.491 15.7969C28.491 16.3492 28.0433 16.7969 27.491 16.7969H5.49097C4.93868 16.7969 4.49097 16.3492 4.49097 15.7969Z" stroke="black" stroke-linecap="round" stroke-linejoin="round"/>
<path fill-rule="evenodd" clip-rule="evenodd" d="M4.49097 7.79688C4.49097 7.24459 4.93868 6.79688 5.49097 6.79688H27.491C28.0433 6.79688 28.491 7.24459 28.491 7.79688C28.491 8.34916 28.0433 8.79688 27.491 8.79688H5.49097C4.93868 8.79688 4.49097 8.34916 4.49097 7.79688Z" stroke="black" stroke-linecap="round" stroke-linejoin="round"/>
<path fill-rule="evenodd" clip-rule="evenodd" d="M4.49097 23.7969C4.49097 23.2446 4.93868 22.7969 5.49097 22.7969H27.491C28.0433 22.7969 28.491 23.2446 28.491 23.7969C28.491 24.3492 28.0433 24.7969 27.491 24.7969H5.49097C4.93868 24.7969 4.49097 24.3492 4.49097 23.7969Z" stroke="black" stroke-linecap="round" stroke-linejoin="round"/>
</svg>
