<svg width="100" height="26" viewBox="0 0 100 26" fill="none" xmlns="http://www.w3.org/2000/svg">
<path d="M43.5063 6.77182L43.2793 8.68909H39.1925V21H36.8716V8.68909H32.6334V6.77182H43.5063ZM54.1284 6.77182L53.8761 8.56295H48.0991V12.8516H53.1193V14.6427H48.0991V19.2089H54.2545V21H45.7782V6.77182H54.1284ZM71.1879 21H68.9427L68.4634 14.7689C68.2616 12.2966 68.1607 10.2952 68.1607 8.76477L65.0325 19.4107H62.8125L59.5582 8.76477L59.5834 9.84954C59.5834 11.1782 59.5077 12.86 59.3563 14.895L58.9023 21H56.6823L57.9184 6.77182H60.9709L63.9729 17.0898L66.8993 6.77182H69.977L71.1879 21ZM78.8878 6.77182C80.7714 6.77182 82.2262 7.15023 83.2521 7.90704C84.2948 8.64704 84.8162 9.75704 84.8162 11.237C84.8162 12.818 84.278 13.9868 83.2016 14.7436C82.1421 15.5005 80.7294 15.8789 78.9635 15.8789H77.0966V21H74.7757V6.77182H78.8878ZM78.8373 14.113C79.9978 14.113 80.8723 13.9111 81.461 13.5075C82.0664 13.087 82.3691 12.3386 82.3691 11.2623C82.3691 9.44591 81.2003 8.53773 78.8625 8.53773H77.0966V14.113H78.8373ZM92.9463 6.51954C94.2244 6.51954 95.3429 6.80545 96.3015 7.37727C97.2769 7.94909 98.0254 8.79 98.5467 9.9C99.0849 10.9932 99.354 12.3134 99.354 13.8607C99.354 15.408 99.0849 16.745 98.5467 17.8718C98.0254 18.9818 97.2769 19.8311 96.3015 20.4198C95.3429 20.9916 94.2244 21.2775 92.9463 21.2775C91.6681 21.2775 90.5413 20.9916 89.5658 20.4198C88.6072 19.848 87.8588 19.007 87.3206 17.897C86.7824 16.787 86.5133 15.45 86.5133 13.8859C86.5133 12.3723 86.7824 11.0605 87.3206 9.95045C87.8588 8.84045 88.6072 7.99114 89.5658 7.4025C90.5413 6.81386 91.6681 6.51954 92.9463 6.51954ZM92.9463 8.36113C91.6849 8.36113 90.701 8.81523 89.9947 9.72341C89.3051 10.6148 88.9604 12.0023 88.9604 13.8859C88.9604 15.8032 89.3135 17.2075 90.0199 18.0989C90.7263 18.9902 91.7017 19.4359 92.9463 19.4359C95.5867 19.4359 96.9069 17.5775 96.9069 13.8607C96.9069 10.1943 95.5867 8.36113 92.9463 8.36113Z" fill="black"/>
<path fill-rule="evenodd" clip-rule="evenodd" d="M13 2.67442C7.29734 2.67442 2.67442 7.29734 2.67442 13C2.67442 18.7027 7.29734 23.3256 13 23.3256C18.7027 23.3256 23.3256 18.7027 23.3256 13C23.3256 7.29734 18.7027 2.67442 13 2.67442ZM1 13C1 6.37258 6.37258 1 13 1C19.6274 1 25 6.37258 25 13C25 19.6274 19.6274 25 13 25C6.37258 25 1 19.6274 1 13Z" fill="black"/>
<path fill-rule="evenodd" clip-rule="evenodd" d="M15.4651 4.84578C15.6871 4.95971 15.8065 5.20714 15.7575 5.45181L14.7343 10.5678L18.7551 12.0756C18.9295 12.141 19.0599 12.2892 19.1024 12.4706C19.145 12.652 19.0943 12.8428 18.9671 12.979L11.1532 21.3511C10.9829 21.5335 10.7123 21.5807 10.4903 21.4668C10.2683 21.3529 10.1489 21.1055 10.1978 20.8608L11.221 15.7448L7.20031 14.237C7.02582 14.1716 6.8955 14.0234 6.85292 13.842C6.81033 13.6606 6.8611 13.4698 6.98826 13.3336L14.8022 4.96152C14.9725 4.77911 15.2431 4.73186 15.4651 4.84578ZM8.37394 13.485L12.0574 14.8663C12.3136 14.9623 12.4624 15.23 12.4087 15.4983L11.6778 19.153L17.5814 12.8276L13.898 11.4463C13.6418 11.3503 13.493 11.0826 13.5467 10.8143L14.2776 7.15961L8.37394 13.485Z" fill="black"/>
<path d="M15.7575 5.45181L15.525 5.40529V5.40529L15.7575 5.45181ZM15.4651 4.84578L15.5734 4.63478L15.4651 4.84578ZM14.7343 10.5678L14.5018 10.5213C14.479 10.6353 14.5422 10.749 14.6511 10.7899L14.7343 10.5678ZM18.7551 12.0756L18.6718 12.2976L18.7551 12.0756ZM19.1024 12.4706L19.3333 12.4164L19.1024 12.4706ZM18.9671 12.979L19.1405 13.1408L18.9671 12.979ZM11.1532 21.3511L10.9798 21.1893L11.1532 21.3511ZM10.4903 21.4668L10.5986 21.2558L10.4903 21.4668ZM10.1978 20.8608L10.4304 20.9073L10.1978 20.8608ZM11.221 15.7448L11.4536 15.7913C11.4764 15.6773 11.4132 15.5636 11.3043 15.5227L11.221 15.7448ZM7.20031 14.237L7.28359 14.015H7.28359L7.20031 14.237ZM6.85292 13.842L6.62203 13.8962L6.85292 13.842ZM6.98826 13.3336L6.81488 13.1718L6.98826 13.3336ZM14.8022 4.96152L14.6288 4.79969L14.8022 4.96152ZM12.0574 14.8663L12.1407 14.6442L12.0574 14.8663ZM8.37394 13.485L8.20055 13.3231C8.14652 13.381 8.12495 13.4621 8.14305 13.5392C8.16114 13.6163 8.21652 13.6792 8.29066 13.707L8.37394 13.485ZM12.4087 15.4983L12.1761 15.4518L12.4087 15.4983ZM11.6778 19.153L11.4452 19.1065C11.4244 19.2104 11.4752 19.3156 11.5695 19.364C11.6638 19.4124 11.7788 19.3923 11.8512 19.3148L11.6778 19.153ZM17.5814 12.8276L17.7548 12.9895C17.8088 12.9316 17.8304 12.8505 17.8123 12.7734C17.7942 12.6963 17.7388 12.6334 17.6647 12.6056L17.5814 12.8276ZM13.898 11.4463L13.8147 11.6684L13.898 11.4463ZM13.5467 10.8143L13.7792 10.8608L13.5467 10.8143ZM14.2776 7.15961L14.5102 7.20613C14.5309 7.10216 14.4802 6.99702 14.3859 6.94861C14.2916 6.9002 14.1766 6.92028 14.1042 6.99779L14.2776 7.15961ZM2.91158 13C2.91158 7.42832 7.42832 2.91158 13 2.91158V2.43725C7.16636 2.43725 2.43725 7.16636 2.43725 13H2.91158ZM13 23.0884C7.42832 23.0884 2.91158 18.5717 2.91158 13H2.43725C2.43725 18.8336 7.16636 23.5627 13 23.5627V23.0884ZM23.0884 13C23.0884 18.5717 18.5717 23.0884 13 23.0884V23.5627C18.8336 23.5627 23.5627 18.8336 23.5627 13H23.0884ZM13 2.91158C18.5717 2.91158 23.0884 7.42832 23.0884 13H23.5627C23.5627 7.16636 18.8336 2.43725 13 2.43725V2.91158ZM13 0.762835C6.2416 0.762835 0.762835 6.2416 0.762835 13H1.23717C1.23717 6.50357 6.50357 1.23717 13 1.23717V0.762835ZM25.2372 13C25.2372 6.2416 19.7584 0.762835 13 0.762835V1.23717C19.4964 1.23717 24.7628 6.50357 24.7628 13H25.2372ZM13 25.2372C19.7584 25.2372 25.2372 19.7584 25.2372 13H24.7628C24.7628 19.4964 19.4964 24.7628 13 24.7628V25.2372ZM0.762835 13C0.762835 19.7584 6.2416 25.2372 13 25.2372V24.7628C6.50357 24.7628 1.23717 19.4964 1.23717 13H0.762835ZM15.9901 5.49832C16.0598 5.14968 15.8897 4.79712 15.5734 4.63478L15.3568 5.05678C15.4845 5.1223 15.5531 5.26459 15.525 5.40529L15.9901 5.49832ZM14.9669 10.6143L15.9901 5.49832L15.525 5.40529L14.5018 10.5213L14.9669 10.6143ZM18.8383 11.8535L14.8176 10.3457L14.6511 10.7899L18.6718 12.2976L18.8383 11.8535ZM19.3333 12.4164C19.2727 12.1579 19.087 11.9467 18.8383 11.8535L18.6718 12.2976C18.7721 12.3353 18.8471 12.4205 18.8716 12.5248L19.3333 12.4164ZM19.1405 13.1408C19.3217 12.9467 19.394 12.6749 19.3333 12.4164L18.8716 12.5248C18.896 12.6291 18.8668 12.7388 18.7937 12.8172L19.1405 13.1408ZM11.3265 21.5129L19.1405 13.1408L18.7937 12.8172L10.9798 21.1893L11.3265 21.5129ZM10.382 21.6778C10.6983 21.8402 11.0839 21.7728 11.3265 21.5129L10.9798 21.1893C10.8819 21.2942 10.7262 21.3213 10.5986 21.2558L10.382 21.6778ZM9.96526 20.8143C9.89554 21.1629 10.0657 21.5155 10.382 21.6778L10.5986 21.2558C10.4709 21.1903 10.4022 21.048 10.4304 20.9073L9.96526 20.8143ZM10.9885 15.6983L9.96526 20.8143L10.4304 20.9073L11.4536 15.7913L10.9885 15.6983ZM7.11704 14.4591L11.1377 15.9669L11.3043 15.5227L7.28359 14.015L7.11704 14.4591ZM6.62203 13.8962C6.68271 14.1547 6.8684 14.3659 7.11704 14.4591L7.28359 14.015C7.18324 13.9773 7.1083 13.8921 7.08381 13.7878L6.62203 13.8962ZM6.81488 13.1718C6.63369 13.3659 6.56135 13.6377 6.62203 13.8962L7.08381 13.7878C7.05932 13.6835 7.08851 13.5738 7.16164 13.4954L6.81488 13.1718ZM14.6288 4.79969L6.81488 13.1718L7.16164 13.4954L14.9756 5.12334L14.6288 4.79969ZM15.5734 4.63478C15.2571 4.47245 14.8714 4.53978 14.6288 4.79969L14.9756 5.12334C15.0735 5.01844 15.2291 4.99127 15.3568 5.05678L15.5734 4.63478ZM12.1407 14.6442L8.45721 13.2629L8.29066 13.707L11.9741 15.0883L12.1407 14.6442ZM12.6413 15.5448C12.7177 15.1625 12.5057 14.7811 12.1407 14.6442L11.9741 15.0883C12.1214 15.1436 12.207 15.2975 12.1761 15.4518L12.6413 15.5448ZM11.9103 19.1995L12.6413 15.5448L12.1761 15.4518L11.4452 19.1065L11.9103 19.1995ZM17.408 12.6658L11.5044 18.9912L11.8512 19.3148L17.7548 12.9895L17.408 12.6658ZM13.8147 11.6684L17.4982 13.0497L17.6647 12.6056L13.9813 11.2243L13.8147 11.6684ZM13.3141 10.7678C13.2376 11.1501 13.4496 11.5315 13.8147 11.6684L13.9813 11.2243C13.8339 11.169 13.7484 11.0151 13.7792 10.8608L13.3141 10.7678ZM14.045 7.1131L13.3141 10.7678L13.7792 10.8608L14.5102 7.20613L14.045 7.1131ZM8.54732 13.6468L14.451 7.32144L14.1042 6.99779L8.20055 13.3231L8.54732 13.6468Z" fill="black"/>
</svg>
