<svg width="25" height="25" viewBox="0 0 25 25" fill="none" xmlns="http://www.w3.org/2000/svg">
<path fill-rule="evenodd" clip-rule="evenodd" d="M12.5 8.5C10.2909 8.5 8.5 10.2909 8.5 12.5C8.5 14.7091 10.2909 16.5 12.5 16.5C14.7091 16.5 16.5 14.7091 16.5 12.5C16.5 10.2909 14.7091 8.5 12.5 8.5ZM6.5 12.5C6.5 9.18629 9.18629 6.5 12.5 6.5C15.8137 6.5 18.5 9.18629 18.5 12.5C18.5 15.8137 15.8137 18.5 12.5 18.5C9.18629 18.5 6.5 15.8137 6.5 12.5Z" fill="black"/>
<path fill-rule="evenodd" clip-rule="evenodd" d="M7 2C4.23858 2 2 4.23858 2 7V18C2 20.7614 4.23858 23 7 23H18C20.7614 23 23 20.7614 23 18V7C23 4.23858 20.7614 2 18 2H7ZM0 7C0 3.13401 3.13401 0 7 0H18C21.866 0 25 3.13401 25 7V18C25 21.866 21.866 25 18 25H7C3.13401 25 0 21.866 0 18V7Z" fill="black"/>
<path d="M19 7.5C19.8284 7.5 20.5 6.82843 20.5 6C20.5 5.17157 19.8284 4.5 19 4.5C18.1716 4.5 17.5 5.17157 17.5 6C17.5 6.82843 18.1716 7.5 19 7.5Z" fill="black"/>
</svg>
